<svg width="24" height="23" viewBox="0 0 24 23" fill="none" xmlns="http://www.w3.org/2000/svg">
<path d="M0.00454704 10.1832C-0.0557036 9.49028 0.490501 8.89453 1.18601 8.89453H3.45025C4.10523 8.89453 4.63617 9.42547 4.63617 10.0805V21.3467C4.63617 22.0017 4.10523 22.5326 3.45025 22.5326H2.16568C1.55053 22.5326 1.03751 22.0623 0.984217 21.4494L0.00454704 10.1832Z" fill="#E2D38D"/>
<path d="M8.19434 9.70941C8.19434 9.21388 8.50232 8.77035 8.95054 8.55907C9.92803 8.09828 11.5937 7.17113 12.3451 5.91803C13.3134 4.30305 13.496 1.38512 13.5258 0.716758C13.5299 0.623195 13.5272 0.529519 13.5401 0.436751C13.7006 -0.720766 15.935 0.631455 16.7922 2.0612C17.2575 2.83714 17.3171 3.85661 17.2682 4.65254C17.2159 5.50415 16.9662 6.32682 16.7212 7.14415L16.1993 8.8852H22.637C23.4234 8.8852 23.992 9.63666 23.7783 10.3935L20.5939 21.6689C20.4496 22.1797 19.9834 22.5325 19.4526 22.5325H9.38025C8.72527 22.5325 8.19434 22.0015 8.19434 21.3465V9.70941Z" fill="#E2D38D"/>
</svg>
