<svg width="26" height="25" viewBox="0 0 26 25" fill="none" xmlns="http://www.w3.org/2000/svg">
<path d="M1.00455 11.1832C0.944296 10.4903 1.4905 9.89453 2.18601 9.89453H4.45025C5.10523 9.89453 5.63617 10.4255 5.63617 11.0805V22.3467C5.63617 23.0017 5.10523 23.5326 4.45025 23.5326H3.16568C2.55053 23.5326 2.03751 23.0623 1.98422 22.4494L1.00455 11.1832Z" stroke="black" stroke-linecap="round" stroke-linejoin="round"/>
<path d="M9.19434 10.7094C9.19434 10.2139 9.50232 9.77035 9.95054 9.55907C10.928 9.09828 12.5937 8.17113 13.3451 6.91803C14.3134 5.30305 14.496 2.38512 14.5258 1.71676C14.5299 1.62319 14.5272 1.52952 14.5401 1.43675C14.7006 0.279234 16.935 1.63145 17.7922 3.0612C18.2575 3.83714 18.3171 4.85661 18.2682 5.65254C18.2159 6.50415 17.9662 7.32682 17.7212 8.14415L17.1993 9.8852H23.637C24.4234 9.8852 24.992 10.6367 24.7783 11.3935L21.5939 22.6689C21.4496 23.1797 20.9834 23.5325 20.4526 23.5325H10.3803C9.72527 23.5325 9.19434 23.0015 9.19434 22.3465V10.7094Z" stroke="black" stroke-linecap="round" stroke-linejoin="round"/>
</svg>
