<svg width="124" height="124" viewBox="0 0 124 124" fill="none" xmlns="http://www.w3.org/2000/svg">
<circle cx="62" cy="62" r="62" fill="#D9D9D9"/>
<mask id="mask0_60_394" style="mask-type:alpha" maskUnits="userSpaceOnUse" x="0" y="0" width="124" height="124">
<circle cx="62" cy="62" r="62" fill="#D9D9D9"/>
</mask>
<g mask="url(#mask0_60_394)">
<path d="M62.3875 27.125C67.0636 27.125 71.5482 28.9826 74.8547 32.2891C78.1612 35.5956 80.0188 40.0802 80.0188 44.7563C80.0188 49.4324 78.1612 53.9169 74.8547 57.2234C71.5482 60.5299 67.0636 62.3875 62.3875 62.3875C57.7114 62.3875 53.2268 60.5299 49.9203 57.2234C46.6138 53.9169 44.7563 49.4324 44.7563 44.7563C44.7563 40.0802 46.6138 35.5956 49.9203 32.2891C53.2268 28.9826 57.7114 27.125 62.3875 27.125ZM62.3875 71.2031C81.87 71.2031 97.65 79.0931 97.65 88.8344V130.2L27.125 163.913V88.8344C27.125 79.0931 42.905 71.2031 62.3875 71.2031Z" fill="white"/>
</g>
</svg>
