<svg width="40" height="40" viewBox="0 0 40 40" fill="none" xmlns="http://www.w3.org/2000/svg">
<mask id="mask0_90_14" style="mask-type:alpha" maskUnits="userSpaceOnUse" x="0" y="0" width="40" height="40">
<rect width="40" height="40" fill="#D9D9D9"/>
</mask>
<g mask="url(#mask0_90_14)">
<path d="M0.830041 18.531C0.733487 17.4205 1.6088 16.4658 2.72337 16.4658H6.35188C7.40151 16.4658 8.25235 17.3167 8.25235 18.3663V36.4208C8.25235 37.4704 7.40151 38.3212 6.35188 38.3212H4.29332C3.30753 38.3212 2.48539 37.5675 2.39999 36.5854L0.830041 18.531Z" fill="#E2D38D"/>
<path d="M13.9536 17.7715C13.9536 16.9774 14.4472 16.2667 15.1654 15.9281C16.7319 15.1897 19.4012 13.7039 20.6053 11.6957C22.1571 9.10768 22.4498 4.43162 22.4974 3.36054C22.504 3.2106 22.4997 3.06048 22.5204 2.91182C22.7776 1.05687 26.3583 3.22384 27.732 5.51505C28.4776 6.75851 28.5732 8.39224 28.4948 9.66774C28.4109 11.0325 28.0107 12.3508 27.6182 13.6606L26.7818 16.4507H37.0984C38.3587 16.4507 39.2699 17.6549 38.9273 18.8677L33.8243 36.9369C33.5931 37.7556 32.846 38.3209 31.9953 38.3209H15.8541C14.8045 38.3209 13.9536 37.47 13.9536 36.4204V17.7715Z" fill="#E2D38D"/>
</g>
</svg>
