<svg width="23" height="23" viewBox="0 0 23 23" fill="none" xmlns="http://www.w3.org/2000/svg">
<path d="M20.9 20.9L16.3399 16.3399M16.3399 16.3399C17.1199 15.5599 17.7387 14.6339 18.1608 13.6147C18.583 12.5956 18.8002 11.5032 18.8002 10.4001C18.8002 9.297 18.583 8.20468 18.1608 7.18553C17.7387 6.16638 17.1199 5.24036 16.3399 4.46034C15.5599 3.68031 14.6339 3.06157 13.6147 2.63942C12.5956 2.21728 11.5032 2 10.4001 2C9.297 2 8.20468 2.21728 7.18553 2.63942C6.16638 3.06157 5.24036 3.68031 4.46034 4.46034C2.88501 6.03567 2 8.17227 2 10.4001C2 12.628 2.88501 14.7646 4.46034 16.3399C6.03567 17.9152 8.17227 18.8002 10.4001 18.8002C12.628 18.8002 14.7646 17.9152 16.3399 16.3399Z" stroke="#253453" stroke-width="2.7" stroke-linecap="round" stroke-linejoin="round"/>
</svg>
